# xmcd CD database file
#
# Track frame offsets:
#	150
#	15963
#	31800
#	50824
#	67420
#	84731
#	100033
#	117137
#	134029
#	152305
#	169820
#	188749
#	205692
#	225806
#	243593
#	267195
#	291282
#	314067
#	326982
#
# Disc length: 4542 seconds
#
# Revision: 0
# Processed by: cddbd v1.5.2PL0 Copyright (c) Steve Scherf et al.
# Submitted via: CDex 1.70beta2
#
DISCID=0d11bc13
DTITLE=Various Artist - Nick The Nightfly Buona Vita CD2
DYEAR=2009
DGENRE=New Age
TTITLE0=Melody Gardot - Baby I'm A Fool
TTITLE1=Beady Belle - Intermission Music
TTITLE2=Janita - Enjoy The Silence
TTITLE3=Traincha - (They Long To Be) Close To You
TTITLE4=Dido - Don't Believe In Love
TTITLE5=Seal - Free
TTITLE6=Lira - Feel Good
TTITLE7=Jeff Hendrick - Celebrate
TTITLE8=Jackiem Joyner - Lost Without You
TTITLE9=Jennie Laws - Heavenly
TTITLE10=Take 6 - What's Going On
TTITLE11=Alicia Keys - If I Ain't Got You
TTITLE12=Michael Brecker - The Nearness Of You
TTITLE13=Nick The Nightfly and Monte Carlo Night Orchestra - That's The Way Love Goes
TTITLE14=David Sanborn - St Louis Blues
TTITLE15=Jeff Cascaro - Love Is In The Air
TTITLE16=Jeff Bradshaw Ft Carol Riddick - Can You Come Over
TTITLE17=Traccia AuTracey Thorn - Hands Up To The Ceilingdio 18
TTITLE18=Amos Lee - Baby I Want You
EXTD=YEAR: 2009
EXTT0=
EXTT1=
EXTT2=
EXTT3=
EXTT4=
EXTT5=
EXTT6=
EXTT7=
EXTT8=
EXTT9=
EXTT10=
EXTT11=
EXTT12=
EXTT13=
EXTT14=
EXTT15=
EXTT16=
EXTT17=
EXTT18=
PLAYORDER=
